<?xml version="1.0" encoding="utf-8"?>
<!-- Generator: Adobe Illustrator 16.0.0, SVG Export Plug-In . SVG Version: 6.00 Build 0)  -->
<!DOCTYPE svg PUBLIC "-//W3C//DTD SVG 1.1//EN" "http://www.w3.org/Graphics/SVG/1.1/DTD/svg11.dtd">
<svg version="1.1" id="Layer_1" xmlns="http://www.w3.org/2000/svg" xmlns:xlink="http://www.w3.org/1999/xlink" x="0px" y="0px"
	 width="32px" height="32px" viewBox="0 0 32 32" enable-background="new 0 0 32 32" xml:space="preserve">
<g>
	<g>
		<g>
			<g>
				<path fill="#FFFFFF" d="M3.5,13v2.2c0,1.9,1.7,3.3,3.6,3.3h19.5c1.9,0,2.9-1.4,2.9-3.3V13"/>
			</g>
			<g>
				<path fill="#37474F" d="M26.6,19H7.1C4.8,19,3,17.3,3,15.2V13c0-0.3,0.2-0.5,0.5-0.5S4,12.7,4,13v2.2C4,16.7,5.4,18,7.1,18h19.5
					c1.5,0,2.4-1,2.4-2.8V13c0-0.3,0.2-0.5,0.5-0.5S30,12.7,30,13v2.2C30,17.5,28.7,19,26.6,19z"/>
			</g>
		</g>
		<g>
			<g>
				<path fill="#FFFFFF" d="M29.5,13c0-2.7-1.5-4.8-4.1-5.1c-0.4-1-1.3-1.7-2.4-1.7c-0.1,0-0.2,0.1-0.4,0.1c0-2.3-1.9-4.1-4.1-4.1
					c-1.9,0-3.4,1.2-3.9,2.9C13.9,4.4,13,4,11.9,4c-2,0-3.7,1.6-3.8,3.6C5.6,8,3.5,10.4,3.5,13"/>
			</g>
			<g>
				<path fill="#37474F" d="M29.5,13.5c-0.3,0-0.5-0.2-0.5-0.5c0-2.5-1.4-4.4-3.7-4.6c-0.2,0-0.3-0.1-0.4-0.3
					c-0.3-0.8-1.1-1.4-2-1.4c-0.1,0-0.2,0.1-0.3,0.1c-0.1,0-0.3,0-0.4-0.1s-0.2-0.2-0.2-0.4c0-2-1.6-3.6-3.6-3.6
					c-1.6,0-2.9,1-3.4,2.6c-0.1,0.2-0.2,0.3-0.4,0.3c-0.2,0-0.3,0-0.5-0.1c-0.6-0.6-1.5-0.9-2.3-0.9c-1.8,0-3.2,1.3-3.3,3.1
					c0,0.2-0.2,0.4-0.4,0.5C5.9,8.4,4,10.6,4,13c0,0.3-0.2,0.5-0.5,0.5S3,13.3,3,13c0-2.7,2.1-5.3,4.7-5.8C8,5,9.8,3.5,11.9,3.5
					c0.9,0,1.7,0.3,2.4,0.8c0.8-1.6,2.3-2.6,4.1-2.6c2.3,0,4.3,1.8,4.6,4c1.2,0,2.2,0.7,2.7,1.8C28.3,7.9,30,10,30,13
					C30,13.3,29.8,13.5,29.5,13.5z"/>
			</g>
		</g>
		<g>
			<g>
				<path fill="#37474F" d="M8.2,12.6c0,0-0.1,0-0.1,0c-0.3-0.1-0.4-0.3-0.4-0.6c0.5-2.4,2.9-3.8,5.2-3.3c0.3,0.1,0.4,0.3,0.4,0.6
					S13,9.7,12.7,9.7c-1.8-0.4-3.6,0.7-4,2.6C8.7,12.4,8.5,12.6,8.2,12.6z"/>
			</g>
		</g>
		<g>
			<g>
				<path fill="#37474F" d="M23.6,13.6c-0.2,0-0.4-0.1-0.5-0.4c-0.2-0.7-0.7-1.3-1.3-1.6c-0.6-0.3-1.4-0.4-2.1-0.2
					c-0.3,0.1-0.5-0.1-0.6-0.3c-0.1-0.3,0.1-0.5,0.3-0.6c1-0.3,2-0.2,2.8,0.3c0.9,0.5,1.5,1.2,1.8,2.2c0.1,0.3-0.1,0.5-0.3,0.6
					C23.7,13.6,23.6,13.6,23.6,13.6z"/>
			</g>
		</g>
		<g>
			<g>
				<path fill="#37474F" d="M22.3,14.5c-0.1,0-0.2,0-0.3-0.1c-0.2-0.2-0.2-0.5,0-0.7c0.6-0.6,1.4-1,2.3-1c0.9,0,1.7,0.3,2.3,0.9
					c0.2,0.2,0.2,0.5,0,0.7c-0.2,0.2-0.5,0.2-0.7,0c-0.4-0.4-1-0.6-1.6-0.6c-0.6,0-1.2,0.3-1.6,0.7C22.6,14.4,22.5,14.5,22.3,14.5z"
					/>
			</g>
		</g>
		<g>
			<g>
				<path fill="#37474F" d="M13.1,10.6C13.1,10.6,13.1,10.6,13.1,10.6c-0.3,0-0.5-0.3-0.5-0.6c0.2-1.8,1.8-3.1,3.6-2.9
					c0.3,0,0.5,0.3,0.4,0.6c0,0.3-0.3,0.5-0.6,0.4c-1.2-0.1-2.3,0.8-2.5,2C13.6,10.4,13.4,10.6,13.1,10.6z"/>
			</g>
		</g>
	</g>
	<g>
		<g>
			<polygon fill="#FFAB00" points="20.7,20.5 16.8,14.8 12.9,20.5 			"/>
		</g>
		<g>
			<path fill="#37474F" d="M20.7,21h-7.8c-0.2,0-0.4-0.1-0.4-0.3c-0.1-0.2-0.1-0.4,0-0.5l3.9-5.7c0.2-0.3,0.6-0.3,0.8,0l3.9,5.7
				c0.1,0.2,0.1,0.4,0,0.5C21.1,20.9,20.9,21,20.7,21z M13.9,20h5.9l-3-4.3L13.9,20z"/>
		</g>
	</g>
	<g>
		<g>
			<g>
				<g>
					<path fill="#37474F" d="M14.4,22.9c0,0.2-0.2,0.4-0.4,0.4c-0.2,0-0.4-0.2-0.4-0.4c0-0.2,0.2-0.4,0.4-0.4
						C14.2,22.5,14.4,22.6,14.4,22.9z"/>
				</g>
				<g>
					<path fill="#37474F" d="M14,23.8c-0.5,0-0.9-0.4-0.9-0.9S13.5,22,14,22c0.2,0,0.5,0.1,0.6,0.3c0.2,0.2,0.3,0.4,0.3,0.6
						c0,0.2-0.1,0.5-0.3,0.6C14.5,23.7,14.3,23.8,14,23.8z"/>
				</g>
			</g>
			<g>
				<g>
					<path fill="#37474F" d="M17.2,22.9c0,0.2-0.2,0.4-0.4,0.4c-0.2,0-0.4-0.2-0.4-0.4c0-0.2,0.2-0.4,0.4-0.4
						C17,22.5,17.2,22.6,17.2,22.9z"/>
				</g>
				<g>
					<circle fill="#37474F" cx="16.8" cy="22.9" r="0.9"/>
				</g>
			</g>
			<g>
				<g>
					<path fill="#37474F" d="M20,22.9c0,0.2-0.2,0.4-0.4,0.4c-0.2,0-0.4-0.2-0.4-0.4c0-0.2,0.2-0.4,0.4-0.4
						C19.9,22.5,20,22.6,20,22.9z"/>
				</g>
				<g>
					<path fill="#37474F" d="M19.6,23.8c-0.2,0-0.5-0.1-0.6-0.3c-0.2-0.2-0.3-0.4-0.3-0.6c0-0.2,0.1-0.5,0.3-0.6
						c0.2-0.2,0.4-0.3,0.6-0.3c0.5,0,0.9,0.4,0.9,0.9S20.1,23.8,19.6,23.8z"/>
				</g>
			</g>
		</g>
		<g>
			<g>
				<g>
					<path fill="#37474F" d="M14.4,25.5c0,0.2-0.2,0.4-0.4,0.4c-0.2,0-0.4-0.2-0.4-0.4s0.2-0.4,0.4-0.4
						C14.2,25.1,14.4,25.2,14.4,25.5z"/>
				</g>
				<g>
					<path fill="#37474F" d="M14,26.4c-0.5,0-0.9-0.4-0.9-0.9c0-0.5,0.4-0.9,0.9-0.9c0.2,0,0.5,0.1,0.6,0.3c0.2,0.2,0.3,0.4,0.3,0.6
						c0,0.2-0.1,0.5-0.3,0.6C14.5,26.3,14.3,26.4,14,26.4z"/>
				</g>
			</g>
			<g>
				<g>
					<path fill="#37474F" d="M17.2,25.5c0,0.2-0.2,0.4-0.4,0.4c-0.2,0-0.4-0.2-0.4-0.4s0.2-0.4,0.4-0.4C17,25.1,17.2,25.2,17.2,25.5
						z"/>
				</g>
				<g>
					<circle fill="#37474F" cx="16.8" cy="25.5" r="0.9"/>
				</g>
			</g>
			<g>
				<g>
					<path fill="#37474F" d="M20,25.5c0,0.2-0.2,0.4-0.4,0.4c-0.2,0-0.4-0.2-0.4-0.4c0-0.2,0.2-0.4,0.4-0.4
						C19.9,25.1,20,25.2,20,25.5z"/>
				</g>
				<g>
					<path fill="#37474F" d="M19.6,26.4c-0.2,0-0.5-0.1-0.6-0.3c-0.2-0.2-0.3-0.4-0.3-0.6c0-0.2,0.1-0.4,0.3-0.6
						c0.2-0.2,0.4-0.3,0.6-0.3c0.5,0,0.9,0.4,0.9,0.9C20.5,26,20.1,26.4,19.6,26.4z"/>
				</g>
			</g>
		</g>
		<g>
			<g>
				<g>
					<path fill="#37474F" d="M14.4,28.1c0,0.2-0.2,0.4-0.4,0.4c-0.2,0-0.4-0.2-0.4-0.4s0.2-0.4,0.4-0.4
						C14.2,27.7,14.4,27.9,14.4,28.1z"/>
				</g>
				<g>
					<path fill="#37474F" d="M14,29c-0.5,0-0.9-0.4-0.9-0.9s0.4-0.9,0.9-0.9c0.2,0,0.5,0.1,0.6,0.3c0.2,0.2,0.3,0.4,0.3,0.6
						c0,0.2-0.1,0.5-0.3,0.6C14.5,28.9,14.3,29,14,29z"/>
				</g>
			</g>
			<g>
				<g>
					<path fill="#37474F" d="M17.2,28.1c0,0.2-0.2,0.4-0.4,0.4c-0.2,0-0.4-0.2-0.4-0.4s0.2-0.4,0.4-0.4C17,27.7,17.2,27.9,17.2,28.1
						z"/>
				</g>
				<g>
					<circle fill="#37474F" cx="16.8" cy="28.1" r="0.9"/>
				</g>
			</g>
			<g>
				<g>
					<path fill="#37474F" d="M20,28.1c0,0.2-0.2,0.4-0.4,0.4c-0.2,0-0.4-0.2-0.4-0.4c0-0.2,0.2-0.4,0.4-0.4
						C19.9,27.7,20,27.9,20,28.1z"/>
				</g>
				<g>
					<path fill="#37474F" d="M19.6,29c-0.2,0-0.5-0.1-0.6-0.3c-0.2-0.2-0.3-0.4-0.3-0.6c0-0.2,0.1-0.5,0.3-0.6
						c0.2-0.2,0.4-0.3,0.6-0.3c0.5,0,0.9,0.4,0.9,0.9S20.1,29,19.6,29z"/>
				</g>
			</g>
		</g>
		<g>
			<g>
				<g>
					<path fill="#37474F" d="M14.4,30.7c0,0.2-0.2,0.4-0.4,0.4c-0.2,0-0.4-0.2-0.4-0.4c0-0.2,0.2-0.4,0.4-0.4
						C14.2,30.3,14.4,30.5,14.4,30.7z"/>
				</g>
				<g>
					<path fill="#37474F" d="M14,31.6c-0.5,0-0.9-0.4-0.9-0.9c0-0.5,0.4-0.9,0.9-0.9c0.2,0,0.5,0.1,0.6,0.3c0.2,0.2,0.3,0.4,0.3,0.6
						c0,0.2-0.1,0.5-0.3,0.6C14.5,31.5,14.3,31.6,14,31.6z"/>
				</g>
			</g>
			<g>
				<g>
					<path fill="#37474F" d="M17.2,30.7c0,0.2-0.2,0.4-0.4,0.4c-0.2,0-0.4-0.2-0.4-0.4c0-0.2,0.2-0.4,0.4-0.4
						C17,30.3,17.2,30.5,17.2,30.7z"/>
				</g>
				<g>
					<circle fill="#37474F" cx="16.8" cy="30.7" r="0.9"/>
				</g>
			</g>
			<g>
				<g>
					<path fill="#37474F" d="M20,30.7c0,0.2-0.2,0.4-0.4,0.4c-0.2,0-0.4-0.2-0.4-0.4c0-0.2,0.2-0.4,0.4-0.4
						C19.9,30.3,20,30.5,20,30.7z"/>
				</g>
				<g>
					<path fill="#37474F" d="M19.6,31.6c-0.2,0-0.5-0.1-0.6-0.3c-0.2-0.2-0.3-0.4-0.3-0.6c0-0.2,0.1-0.4,0.3-0.6
						c0.2-0.2,0.4-0.3,0.6-0.3c0.5,0,0.9,0.4,0.9,0.9C20.5,31.2,20.1,31.6,19.6,31.6z"/>
				</g>
			</g>
		</g>
	</g>
</g>
</svg>
