<?xml version="1.0" encoding="utf-8"?>
<!-- Generator: Adobe Illustrator 16.0.0, SVG Export Plug-In . SVG Version: 6.00 Build 0)  -->
<!DOCTYPE svg PUBLIC "-//W3C//DTD SVG 1.1//EN" "http://www.w3.org/Graphics/SVG/1.1/DTD/svg11.dtd">
<svg version="1.1" id="Layer_1" xmlns="http://www.w3.org/2000/svg" xmlns:xlink="http://www.w3.org/1999/xlink" x="0px" y="0px"
	 width="32px" height="32px" viewBox="0 0 32 32" enable-background="new 0 0 32 32" xml:space="preserve">
<g>
	<g>
		
			<rect x="6.8" y="8.5" transform="matrix(0.7071 -0.7071 0.7071 0.7071 -7.8568 16.5091)" fill="#FFAB00" width="18.5" height="18.5"/>
		<path fill="#37474F" d="M16,31.5L2.2,17.7L16,4l13.8,13.8L16,31.5z M3.7,17.7L16,30.1l12.3-12.3L16,5.4L3.7,17.7z"/>
	</g>
	<g>
		<g>
			<path fill="#37474F" d="M30.9,18c0,0,0-0.4,0-0.4c0-8.8-6.7-16.2-14.9-16.2C7.8,1.4,1.1,8.8,1.1,17.7c0,0,0,0.3,0,0.3H30.9z"/>
			<path fill="#37474F" d="M30.9,18H1.1c-0.3,0-0.5-0.2-0.5-0.5l0-0.2C0.6,8.2,7.5,0.8,16,0.8c8.5,0,15.4,7.4,15.4,16.5
				c0,0,0,0.2,0,0.2C31.4,17.8,31.2,18,30.9,18z M1.6,17h28.8C30.3,8.6,23.8,1.8,16,1.8C8.2,1.8,1.8,8.6,1.6,17z"/>
		</g>
		<g>
			<g>
				<path fill="#37474F" d="M13.5,21.7c0,0.2-0.2,0.4-0.4,0.4c-0.2,0-0.4-0.2-0.4-0.4c0-0.2,0.2-0.4,0.4-0.4
					C13.3,21.3,13.5,21.5,13.5,21.7z"/>
				<path fill="#37474F" d="M13.1,22.6c-0.5,0-0.9-0.4-0.9-0.9c0-0.5,0.4-0.9,0.9-0.9c0.5,0,0.9,0.4,0.9,0.9
					C14,22.2,13.6,22.6,13.1,22.6z"/>
			</g>
			<g>
				<path fill="#37474F" d="M16.4,21.7c0,0.2-0.2,0.4-0.4,0.4c-0.2,0-0.4-0.2-0.4-0.4c0-0.2,0.2-0.4,0.4-0.4
					C16.2,21.3,16.4,21.5,16.4,21.7z"/>
				<path fill="#37474F" d="M16,22.6c-0.5,0-0.9-0.4-0.9-0.9c0-0.5,0.4-0.9,0.9-0.9c0.5,0,0.9,0.4,0.9,0.9
					C16.9,22.2,16.5,22.6,16,22.6z"/>
			</g>
			<g>
				<path fill="#37474F" d="M19.3,21.7c0,0.2-0.2,0.4-0.4,0.4c-0.2,0-0.4-0.2-0.4-0.4c0-0.2,0.2-0.4,0.4-0.4
					C19.1,21.3,19.3,21.5,19.3,21.7z"/>
				<path fill="#37474F" d="M18.9,22.6c-0.5,0-0.9-0.4-0.9-0.9c0-0.5,0.4-0.9,0.9-0.9c0.5,0,0.9,0.4,0.9,0.9
					C19.8,22.2,19.4,22.6,18.9,22.6z"/>
			</g>
		</g>
		<g>
			<g>
				<path fill="#FFECB3" d="M16.7,3.6c0,0.4-0.3,0.7-0.7,0.7l0,0c-0.4,0-0.7-0.3-0.7-0.7l0,0C15.3,3.3,15.6,3,16,3l0,0
					C16.4,3,16.7,3.3,16.7,3.6L16.7,3.6z"/>
			</g>
			<g>
				<path fill="#FFECB3" d="M25.6,8c-0.3,0.3-0.7,0.3-0.9,0l0,0c-0.3-0.3-0.3-0.7,0-0.9l0,0c0.3-0.3,0.7-0.3,0.9,0l0,0
					C25.9,7.3,25.9,7.7,25.6,8L25.6,8z"/>
			</g>
			<g>
				<path fill="#FFECB3" d="M28.9,17.4c-0.4,0-0.7-0.3-0.7-0.7l0,0c0-0.4,0.3-0.7,0.7-0.7l0,0c0.4,0,0.7,0.3,0.7,0.7l0,0
					C29.6,17.1,29.3,17.4,28.9,17.4L28.9,17.4z"/>
			</g>
			<g>
				<path fill="#FFECB3" d="M2.9,15.9c0.4,0,0.7,0.3,0.7,0.7l0,0c0,0.4-0.3,0.7-0.7,0.7l0,0c-0.4,0-0.6-0.3-0.7-0.7l0,0
					C2.3,16.2,2.6,15.9,2.9,15.9L2.9,15.9z"/>
			</g>
			<g>
				<path fill="#FFECB3" d="M7.3,6.9c0.3,0.3,0.3,0.7,0,0.9l0,0C7,8.1,6.6,8.1,6.3,7.8l0,0c-0.3-0.3-0.2-0.7,0-0.9l0,0
					C6.6,6.6,7,6.7,7.3,6.9L7.3,6.9z"/>
			</g>
		</g>
		<g>
			<rect x="14" y="7" fill="#FFFFFF" width="3" height="12"/>
			<path fill="#37474F" d="M18,19h-4V6h4V19z M15,18h2V7h-2V18z"/>
		</g>
		<g>
			<path fill="#FFAB00" d="M18.3,17.3c0,1.3-1,2.3-2.3,2.3c-1.3,0-2.3-1-2.3-2.3s1-2.3,2.3-2.3C17.2,15.1,18.3,16.1,18.3,17.3z"/>
			<path fill="#37474F" d="M16,20.1c-1.5,0-2.8-1.2-2.8-2.8c0-1.5,1.2-2.8,2.8-2.8c1.5,0,2.8,1.2,2.8,2.8
				C18.8,18.9,17.5,20.1,16,20.1z M16,15.6c-1,0-1.8,0.8-1.8,1.8c0,1,0.8,1.8,1.8,1.8c1,0,1.8-0.8,1.8-1.8
				C17.8,16.4,17,15.6,16,15.6z"/>
		</g>
	</g>
	<g>
		<g>
			<line fill="#FFAB00" x1="14" y1="25" x2="18" y2="25"/>
			<path fill="#37474F" d="M18,25h-4c-0.3,0-0.5-0.2-0.5-0.5S13.7,24,14,24h4c0.3,0,0.5,0.2,0.5,0.5S18.3,25,18,25z"/>
		</g>
		<g>
			<line fill="#FFAB00" x1="14" y1="27" x2="18" y2="27"/>
			<path fill="#37474F" d="M18,27h-4c-0.3,0-0.5-0.2-0.5-0.5S13.7,26,14,26h4c0.3,0,0.5,0.2,0.5,0.5S18.3,27,18,27z"/>
		</g>
	</g>
</g>
</svg>
