<?xml version="1.0" encoding="utf-8"?>
<!-- Generator: Adobe Illustrator 16.0.0, SVG Export Plug-In . SVG Version: 6.00 Build 0)  -->
<!DOCTYPE svg PUBLIC "-//W3C//DTD SVG 1.1//EN" "http://www.w3.org/Graphics/SVG/1.1/DTD/svg11.dtd">
<svg version="1.1" id="Layer_1" xmlns="http://www.w3.org/2000/svg" xmlns:xlink="http://www.w3.org/1999/xlink" x="0px" y="0px"
	 width="32px" height="32px" viewBox="0 0 32 32" enable-background="new 0 0 32 32" xml:space="preserve">
<g>
	<g>
		<g>
			<rect x="2" y="3.5" fill="#FFAB00" width="27" height="24"/>
			<path fill="#37474F" d="M29,28H2c-0.3,0-0.5-0.2-0.5-0.5v-24C1.5,3.2,1.7,3,2,3h27c0.3,0,0.5,0.2,0.5,0.5v24
				C29.5,27.8,29.3,28,29,28z M2.5,27h26V4h-26V27z"/>
		</g>
		<g>
			<g>
				<g>
					<rect x="1" y="3.5" fill="#FFECB3" width="4" height="4"/>
					<path fill="#37474F" d="M5,8H1C0.7,8,0.5,7.8,0.5,7.5v-4C0.5,3.2,0.7,3,1,3h4c0.3,0,0.5,0.2,0.5,0.5v4C5.5,7.8,5.3,8,5,8z
						 M1.5,7h3V4h-3V7z"/>
				</g>
				<g>
					<rect x="1" y="7.5" fill="#FFECB3" width="4" height="4"/>
					<path fill="#37474F" d="M5,12H1c-0.3,0-0.5-0.2-0.5-0.5v-4C0.5,7.2,0.7,7,1,7h4c0.3,0,0.5,0.2,0.5,0.5v4C5.5,11.8,5.3,12,5,12z
						 M1.5,11h3V8h-3V11z"/>
				</g>
				<g>
					<rect x="1" y="11.5" fill="#FFECB3" width="4" height="4"/>
					<path fill="#37474F" d="M5,16H1c-0.3,0-0.5-0.2-0.5-0.5v-4C0.5,11.2,0.7,11,1,11h4c0.3,0,0.5,0.2,0.5,0.5v4
						C5.5,15.8,5.3,16,5,16z M1.5,15h3v-3h-3V15z"/>
				</g>
				<g>
					<rect x="1" y="15.5" fill="#FFECB3" width="4" height="4"/>
					<path fill="#37474F" d="M5,20H1c-0.3,0-0.5-0.2-0.5-0.5v-4C0.5,15.2,0.7,15,1,15h4c0.3,0,0.5,0.2,0.5,0.5v4
						C5.5,19.8,5.3,20,5,20z M1.5,19h3v-3h-3V19z"/>
				</g>
				<g>
					<rect x="1" y="19.5" fill="#FFECB3" width="4" height="4"/>
					<path fill="#37474F" d="M5,24H1c-0.3,0-0.5-0.2-0.5-0.5v-4C0.5,19.2,0.7,19,1,19h4c0.3,0,0.5,0.2,0.5,0.5v4
						C5.5,23.8,5.3,24,5,24z M1.5,23h3v-3h-3V23z"/>
				</g>
				<g>
					<rect x="1" y="23.5" fill="#FFECB3" width="4" height="4"/>
					<path fill="#37474F" d="M5,28H1c-0.3,0-0.5-0.2-0.5-0.5v-4C0.5,23.2,0.7,23,1,23h4c0.3,0,0.5,0.2,0.5,0.5v4
						C5.5,27.8,5.3,28,5,28z M1.5,27h3v-3h-3V27z"/>
				</g>
			</g>
			<g>
				<g>
					<rect x="27" y="3.5" fill="#FFECB3" width="4" height="4"/>
					<path fill="#37474F" d="M31,8h-4c-0.3,0-0.5-0.2-0.5-0.5v-4C26.5,3.2,26.7,3,27,3h4c0.3,0,0.5,0.2,0.5,0.5v4
						C31.5,7.8,31.3,8,31,8z M27.5,7h3V4h-3V7z"/>
				</g>
				<g>
					<rect x="27" y="7.5" fill="#FFECB3" width="4" height="4"/>
					<path fill="#37474F" d="M31,12h-4c-0.3,0-0.5-0.2-0.5-0.5v-4C26.5,7.2,26.7,7,27,7h4c0.3,0,0.5,0.2,0.5,0.5v4
						C31.5,11.8,31.3,12,31,12z M27.5,11h3V8h-3V11z"/>
				</g>
				<g>
					<rect x="27" y="11.5" fill="#FFECB3" width="4" height="4"/>
					<path fill="#37474F" d="M31,16h-4c-0.3,0-0.5-0.2-0.5-0.5v-4c0-0.3,0.2-0.5,0.5-0.5h4c0.3,0,0.5,0.2,0.5,0.5v4
						C31.5,15.8,31.3,16,31,16z M27.5,15h3v-3h-3V15z"/>
				</g>
				<g>
					<rect x="27" y="15.5" fill="#FFECB3" width="4" height="4"/>
					<path fill="#37474F" d="M31,20h-4c-0.3,0-0.5-0.2-0.5-0.5v-4c0-0.3,0.2-0.5,0.5-0.5h4c0.3,0,0.5,0.2,0.5,0.5v4
						C31.5,19.8,31.3,20,31,20z M27.5,19h3v-3h-3V19z"/>
				</g>
				<g>
					<rect x="27" y="19.5" fill="#FFECB3" width="4" height="4"/>
					<path fill="#37474F" d="M31,24h-4c-0.3,0-0.5-0.2-0.5-0.5v-4c0-0.3,0.2-0.5,0.5-0.5h4c0.3,0,0.5,0.2,0.5,0.5v4
						C31.5,23.8,31.3,24,31,24z M27.5,23h3v-3h-3V23z"/>
				</g>
				<g>
					<rect x="27" y="23.5" fill="#FFECB3" width="4" height="4"/>
					<path fill="#37474F" d="M31,28h-4c-0.3,0-0.5-0.2-0.5-0.5v-4c0-0.3,0.2-0.5,0.5-0.5h4c0.3,0,0.5,0.2,0.5,0.5v4
						C31.5,27.8,31.3,28,31,28z M27.5,27h3v-3h-3V27z"/>
				</g>
			</g>
		</g>
		<g>
			<g>
				<g>
					<g>
						<path fill="#FFECB3" d="M13.8,21.1c0.5,0.7,0,1.9-1.1,2.6c-1.1,0.7-2.3,0.6-2.8-0.2c-0.5-0.8,0-1.9,1.1-2.6
							C12.1,20.3,13.3,20.4,13.8,21.1z"/>
						<path fill="#37474F" d="M11.3,24.6c-0.7,0-1.4-0.3-1.7-0.8c-0.6-1-0.1-2.4,1.2-3.3c1.3-0.8,2.9-0.6,3.5,0.3
							c0.3,0.5,0.3,1.1,0.1,1.8c-0.2,0.6-0.7,1.1-1.3,1.5C12.5,24.5,11.9,24.6,11.3,24.6z M12.5,21c-0.4,0-0.8,0.1-1.2,0.4
							c-0.8,0.5-1.2,1.4-0.9,1.9c0.3,0.5,1.3,0.5,2.1,0c0.4-0.3,0.8-0.6,0.9-1c0.1-0.2,0.2-0.6,0-0.9C13.2,21.2,12.9,21,12.5,21z"/>
					</g>
					<g>
						<line fill="#FFECB3" x1="14" y1="11" x2="14" y2="22"/>
						<path fill="#37474F" d="M14,22.5c-0.3,0-0.5-0.2-0.5-0.5V11c0-0.3,0.2-0.5,0.5-0.5s0.5,0.2,0.5,0.5v11
							C14.5,22.3,14.3,22.5,14,22.5z"/>
					</g>
				</g>
			</g>
			<g>
				<g>
					<g>
						<path fill="#FFECB3" d="M22.8,18.5c0.5,0.8,0,1.9-1.1,2.6c-1.1,0.7-2.3,0.6-2.8-0.2c-0.5-0.8,0-1.9,1.1-2.6
							C21.1,17.7,22.3,17.8,22.8,18.5z"/>
						<path fill="#37474F" d="M20.3,22c-0.8,0-1.4-0.3-1.7-0.8c-0.6-1-0.1-2.4,1.2-3.2c1.2-0.8,2.9-0.6,3.5,0.3
							c0.6,1,0.1,2.4-1.2,3.2C21.5,21.8,20.9,22,20.3,22z M21.5,18.4c-0.4,0-0.8,0.1-1.2,0.4c-0.8,0.5-1.2,1.4-0.9,1.9
							c0.3,0.5,1.3,0.5,2.1,0c0.8-0.5,1.2-1.4,0.9-1.9C22.2,18.5,21.9,18.4,21.5,18.4z"/>
					</g>
					<g>
						<line fill="#FFECB3" x1="23" y1="9" x2="23" y2="19"/>
						<path fill="#37474F" d="M23,19.5c-0.3,0-0.5-0.2-0.5-0.5V9c0-0.3,0.2-0.5,0.5-0.5s0.5,0.2,0.5,0.5v10
							C23.5,19.3,23.3,19.5,23,19.5z"/>
					</g>
				</g>
			</g>
			<g>
				<polyline fill="#FFECB3" points="14,11 23,7.8 23,9 				"/>
				<path fill="#37474F" d="M14,11.5c-0.2,0-0.4-0.1-0.5-0.3c-0.1-0.3,0-0.5,0.3-0.6l9-3.2c0.2-0.1,0.3,0,0.5,0.1
					c0.1,0.1,0.2,0.2,0.2,0.4V9c0,0.3-0.2,0.5-0.5,0.5S22.5,9.3,22.5,9V8.6l-8.3,2.9C14.1,11.5,14.1,11.5,14,11.5z"/>
			</g>
			<g>
				<polyline fill="#FFECB3" points="14.1,13.8 23,10.5 23,12 				"/>
				<path fill="#37474F" d="M14.1,14.3c-0.2,0-0.4-0.1-0.5-0.3c-0.1-0.3,0-0.5,0.3-0.6l8.9-3.3c0.2-0.1,0.3,0,0.5,0.1
					c0.1,0.1,0.2,0.2,0.2,0.4V12c0,0.3-0.2,0.5-0.5,0.5s-0.5-0.2-0.5-0.5v-0.8l-8.2,3.1C14.2,14.3,14.2,14.3,14.1,14.3z"/>
			</g>
		</g>
	</g>
	<g>
		<g>
			<path fill="#37474F" d="M10.2,17.2c0.3,0,0.6,0.3,0.6,0.6c0,0.3-0.2,0.6-0.6,0.6c-0.3,0-0.6-0.2-0.6-0.6
				C9.7,17.4,9.9,17.2,10.2,17.2z"/>
			<path fill="#37474F" d="M10.2,18.8c-0.6,0-1.1-0.5-1.1-1.1c0-0.6,0.5-1.1,1.1-1.1c0.6,0,1.1,0.5,1.1,1.1
				C11.3,18.3,10.8,18.8,10.2,18.8z"/>
		</g>
		<g>
			<path fill="#37474F" d="M10.2,13.3c0.3,0,0.6,0.2,0.6,0.5c0,0.3-0.2,0.6-0.6,0.6c-0.3,0-0.6-0.2-0.6-0.6
				C9.7,13.5,9.9,13.3,10.2,13.3z"/>
			<path fill="#37474F" d="M10.2,14.9c-0.6,0-1.1-0.5-1.1-1.1c0-0.6,0.5-1,1.1-1c0.6,0,1.1,0.5,1.1,1C11.3,14.4,10.8,14.9,10.2,14.9
				z"/>
		</g>
		<g>
			<path fill="#37474F" d="M10.2,9.4c0.3,0,0.6,0.3,0.6,0.6c0,0.3-0.2,0.6-0.6,0.6c-0.3,0-0.6-0.3-0.6-0.6C9.7,9.7,9.9,9.4,10.2,9.4
				z"/>
			<path fill="#37474F" d="M10.2,11c-0.6,0-1.1-0.5-1.1-1.1c0-0.6,0.5-1.1,1.1-1.1c0.6,0,1.1,0.5,1.1,1.1C11.3,10.5,10.8,11,10.2,11
				z"/>
		</g>
	</g>
</g>
</svg>
