<?xml version="1.0" encoding="utf-8"?>
<!-- Generator: Adobe Illustrator 16.0.0, SVG Export Plug-In . SVG Version: 6.00 Build 0)  -->
<!DOCTYPE svg PUBLIC "-//W3C//DTD SVG 1.1//EN" "http://www.w3.org/Graphics/SVG/1.1/DTD/svg11.dtd">
<svg version="1.1" id="Layer_1" xmlns="http://www.w3.org/2000/svg" xmlns:xlink="http://www.w3.org/1999/xlink" x="0px" y="0px"
	 width="32px" height="32px" viewBox="0 0 32 32" enable-background="new 0 0 32 32" xml:space="preserve">
<g>
	<g>
		<g>
			<polygon fill="#37474F" points="11.6,30.4 0.8,27.1 0.8,5.2 11.6,8.5 			"/>
			<path fill="#37474F" d="M11.6,30.9c0,0-0.1,0-0.1,0L0.6,27.6c-0.2-0.1-0.4-0.3-0.4-0.5V5.2c0-0.2,0.1-0.3,0.2-0.4
				c0.1-0.1,0.3-0.1,0.4-0.1l10.8,3.3c0.2,0.1,0.4,0.3,0.4,0.5v21.9c0,0.2-0.1,0.3-0.2,0.4C11.8,30.9,11.7,30.9,11.6,30.9z
				 M1.3,26.8l9.8,3V8.9l-9.8-3V26.8z"/>
		</g>
		<g>
			<polygon fill="#FFFFFF" points="31.2,30.4 21.4,27.1 21.4,5.2 31.2,8.5 			"/>
			<path fill="#37474F" d="M31.2,30.9c-0.1,0-0.1,0-0.2,0l-9.8-3.3c-0.2-0.1-0.3-0.3-0.3-0.5V5.2c0-0.2,0.1-0.3,0.2-0.4
				c0.1-0.1,0.3-0.1,0.5-0.1l9.8,3.3c0.2,0.1,0.3,0.3,0.3,0.5v21.9c0,0.2-0.1,0.3-0.2,0.4C31.4,30.9,31.3,30.9,31.2,30.9z
				 M21.9,26.8l8.8,2.9V8.9l-8.8-3V26.8z"/>
		</g>
		<g>
			<g>
				<line fill="#FFFFFF" x1="24" y1="10.6" x2="28.6" y2="12.2"/>
				<path fill="#37474F" d="M28.6,12.7c-0.1,0-0.1,0-0.2,0l-4.6-1.5c-0.3-0.1-0.4-0.4-0.3-0.6c0.1-0.3,0.4-0.4,0.6-0.3l4.6,1.5
					c0.3,0.1,0.4,0.4,0.3,0.6C29,12.5,28.8,12.7,28.6,12.7z"/>
			</g>
			<g>
				<line fill="#FFFFFF" x1="24" y1="17.1" x2="28.6" y2="18.6"/>
				<path fill="#37474F" d="M28.6,19.1c-0.1,0-0.1,0-0.2,0l-4.6-1.5c-0.3-0.1-0.4-0.4-0.3-0.6c0.1-0.3,0.4-0.4,0.6-0.3l4.6,1.5
					c0.3,0.1,0.4,0.4,0.3,0.6C29,19,28.8,19.1,28.6,19.1z"/>
			</g>
			<g>
				<line fill="#FFFFFF" x1="24" y1="23.5" x2="28.6" y2="25"/>
				<path fill="#37474F" d="M28.6,25.5c-0.1,0-0.1,0-0.2,0L23.9,24c-0.3-0.1-0.4-0.4-0.3-0.6c0.1-0.3,0.4-0.4,0.6-0.3l4.6,1.5
					c0.3,0.1,0.4,0.4,0.3,0.6C29,25.4,28.8,25.5,28.6,25.5z"/>
			</g>
		</g>
		<g>
			<polygon fill="#B0BEC5" points="11.6,30.4 21.4,27.1 21.4,5.2 11.6,8.5 			"/>
			<path fill="#37474F" d="M11.6,30.9c-0.1,0-0.2,0-0.3-0.1c-0.1-0.1-0.2-0.2-0.2-0.4V8.5c0-0.2,0.1-0.4,0.3-0.5l9.8-3.3
				c0.2,0,0.3,0,0.5,0.1c0.1,0.1,0.2,0.2,0.2,0.4v21.9c0,0.2-0.1,0.4-0.3,0.5l-9.8,3.3C11.7,30.9,11.6,30.9,11.6,30.9z M12.1,8.9
				v20.8l8.8-2.9V5.9L12.1,8.9z"/>
		</g>
	</g>
	<g>
		<g>
			<path fill="#FFAB00" d="M20.4,9.8c0.6-0.9,1-1.9,1-3c0-2.9-2.3-5.2-5.2-5.2c-2.9,0-5.2,2.3-5.2,5.2c0,1.1,0.4,2.2,1,3l4.2,7.2
				L20.4,9.8z"/>
			<path fill="#37474F" d="M16.2,17.5L16.2,17.5c-0.2,0-0.3-0.1-0.4-0.2L11.6,10c-0.7-0.9-1-2.1-1-3.3c0-3.1,2.5-5.7,5.7-5.7
				c3.1,0,5.7,2.5,5.7,5.7c0,1.2-0.4,2.3-1.1,3.3l-4.2,7.2C16.5,17.4,16.4,17.5,16.2,17.5z M16.2,2.1c-2.6,0-4.7,2.1-4.7,4.7
				c0,1,0.3,1.9,0.9,2.7l3.8,6.5L20,9.5c0.6-0.8,0.9-1.8,0.9-2.8C20.9,4.2,18.8,2.1,16.2,2.1z"/>
		</g>
		<g>
			<path fill="#37474F" d="M18.4,6.8c0,1.2-1,2.2-2.2,2.2C15,9,14,8,14,6.8c0-1.2,1-2.2,2.2-2.2C17.4,4.6,18.4,5.5,18.4,6.8z"/>
			<path fill="#37474F" d="M16.2,9.5c-1.5,0-2.7-1.2-2.7-2.7c0-1.5,1.2-2.7,2.7-2.7c1.5,0,2.7,1.2,2.7,2.7
				C18.9,8.2,17.7,9.5,16.2,9.5z M16.2,5.1c-0.9,0-1.7,0.8-1.7,1.7c0,0.9,0.8,1.7,1.7,1.7c0.9,0,1.7-0.8,1.7-1.7
				C17.9,5.8,17.1,5.1,16.2,5.1z"/>
		</g>
	</g>
	<g>
		<g>
			<path fill="#37474F" d="M16.2,24.7c0.2,0,0.4,0.2,0.4,0.4c0,0.2-0.2,0.4-0.4,0.4c-0.2,0-0.4-0.2-0.4-0.4
				C15.8,24.9,16,24.7,16.2,24.7z"/>
			<path fill="#37474F" d="M16.2,26.1c-0.5,0-0.9-0.4-0.9-0.9c0-0.2,0.1-0.5,0.3-0.6c0.2-0.2,0.4-0.3,0.6-0.3c0.5,0,0.9,0.4,0.9,0.9
				S16.7,26.1,16.2,26.1z"/>
		</g>
		<g>
			<path fill="#37474F" d="M16.2,21.9c0.2,0,0.4,0.2,0.4,0.4c0,0.2-0.2,0.4-0.4,0.4c-0.2,0-0.4-0.2-0.4-0.4
				C15.8,22.1,16,21.9,16.2,21.9z"/>
			<path fill="#37474F" d="M16.2,23.2L16.2,23.2c-0.5,0-0.9-0.4-0.9-0.9c0-0.5,0.4-0.9,0.9-0.9c0.5,0,0.9,0.4,0.9,0.9
				C17.1,22.8,16.7,23.2,16.2,23.2L16.2,23.2z"/>
		</g>
		<g>
			<path fill="#37474F" d="M16.2,19c0.2,0,0.4,0.2,0.4,0.4s-0.2,0.4-0.4,0.4c-0.2,0-0.4-0.2-0.4-0.4C15.8,19.2,16,19,16.2,19z"/>
			<path fill="#37474F" d="M16.2,20.3c-0.2,0-0.5-0.1-0.6-0.3c-0.2-0.2-0.3-0.4-0.3-0.7c0-0.2,0.1-0.4,0.3-0.6
				c0.2-0.2,0.4-0.3,0.7-0.3c0.5,0,0.9,0.4,0.9,0.9C17.1,19.9,16.7,20.3,16.2,20.3z"/>
		</g>
	</g>
</g>
</svg>
