<?xml version="1.0" encoding="utf-8"?>
<!-- Generator: Adobe Illustrator 16.0.0, SVG Export Plug-In . SVG Version: 6.00 Build 0)  -->
<!DOCTYPE svg PUBLIC "-//W3C//DTD SVG 1.1//EN" "http://www.w3.org/Graphics/SVG/1.1/DTD/svg11.dtd">
<svg version="1.1" id="Layer_1" xmlns="http://www.w3.org/2000/svg" xmlns:xlink="http://www.w3.org/1999/xlink" x="0px" y="0px"
	 width="32px" height="32px" viewBox="0 0 32 32" enable-background="new 0 0 32 32" xml:space="preserve">
<g>
	<g>
		<circle fill="#FFFFFF" cx="15.9" cy="11.9" r="2.9"/>
		<path fill="#37474F" d="M15.9,15.2c-1.9,0-3.4-1.5-3.4-3.4s1.5-3.4,3.4-3.4c1.9,0,3.4,1.5,3.4,3.4S17.8,15.2,15.9,15.2z M15.9,9.5
			c-1.3,0-2.4,1.1-2.4,2.4s1.1,2.4,2.4,2.4c1.3,0,2.4-1.1,2.4-2.4S17.2,9.5,15.9,9.5z"/>
	</g>
	<g>
		<path fill="#FFECB3" d="M2.6,25.5c0-7.3,5.9-13.3,13.3-13.3c7.3,0,13.3,5.9,13.3,13.3"/>
		<path fill="#37474F" d="M29.1,26c-0.3,0-0.5-0.2-0.5-0.5c0-7-5.7-12.8-12.8-12.8S3.1,18.4,3.1,25.5c0,0.3-0.2,0.5-0.5,0.5
			s-0.5-0.2-0.5-0.5c0-7.6,6.2-13.8,13.8-13.8s13.8,6.2,13.8,13.8C29.6,25.7,29.4,26,29.1,26z"/>
	</g>
	<path fill="#FFAB00" d="M2.6,25.5c0-6.2,5.9-11.3,13.3-11.3c7.3,0,13.3,5,13.3,11.3"/>
	<g>
		<path fill="#FFAB00" d="M4.9,25c0-5.6,4.5-10.1,10.1-10.1"/>
		<path fill="#37474F" d="M4.9,25.5c-0.3,0-0.5-0.2-0.5-0.5c0-5.8,4.8-10.6,10.6-10.6c0.3,0,0.5,0.2,0.5,0.5s-0.2,0.5-0.5,0.5
			c-5.3,0-9.6,4.3-9.6,9.6C5.4,25.3,5.2,25.5,4.9,25.5z"/>
	</g>
	<g>
		<path fill="#FFECB3" d="M20.4,12c0,0.4-0.9,0.5-2,0.5h-5c-1.1,0-2,0-2-0.5l0,0c0-0.4,0.9-0.5,2-0.5h5C19.5,11.5,20.4,11.6,20.4,12
			L20.4,12z"/>
		<path fill="#37474F" d="M18.4,13h-5c-1.1,0-2.5,0-2.5-1c0-1,1.4-1,2.5-1h5c1.1,0,2.5,0,2.5,1C20.9,13,19.5,13,18.4,13z"/>
	</g>
	<g>
		<path fill="#B0BEC5" d="M31.2,29.2c0,0.5-0.7,0.9-1.1,0.9H1.7c-0.5,0-0.9-0.5-0.9-0.9v-1c0-0.5,0.4-1,0.9-1h28.4
			c0.5,0,1.1,0.6,1.1,1V29.2z"/>
		<path fill="#37474F" d="M30.1,30.6H1.7c-0.7,0-1.4-0.7-1.4-1.4v-1c0-0.7,0.6-1.5,1.4-1.5h28.4c0.7,0,1.6,0.8,1.6,1.5v1
			C31.7,30,30.8,30.6,30.1,30.6z M1.7,27.7c-0.1,0-0.4,0.3-0.4,0.5v1c0,0.2,0.2,0.4,0.4,0.4h28.4c0.2,0,0.6-0.3,0.6-0.4v-1
			c0-0.2-0.4-0.5-0.6-0.5H1.7z"/>
	</g>
	<g>
		<g>
			<path fill="#37474F" d="M15.9,23.8c0.2,0,0.4,0.2,0.4,0.4c0,0.2-0.2,0.4-0.4,0.4c-0.2,0-0.4-0.2-0.4-0.4
				C15.5,24,15.7,23.8,15.9,23.8z"/>
			<path fill="#37474F" d="M15.9,25.1L15.9,25.1c-0.5,0-0.9-0.4-0.9-0.9c0-0.2,0.1-0.5,0.3-0.6c0.2-0.2,0.4-0.3,0.6-0.3
				c0.5,0,0.9,0.4,0.9,0.9C16.8,24.7,16.4,25.1,15.9,25.1z"/>
		</g>
		<g>
			<path fill="#37474F" d="M15.9,21c0.2,0,0.4,0.2,0.4,0.4c0,0.2-0.2,0.4-0.4,0.4c-0.2,0-0.4-0.2-0.4-0.4C15.5,21.2,15.7,21,15.9,21
				z"/>
			<path fill="#37474F" d="M15.9,22.3c-0.5,0-0.9-0.4-0.9-0.9c0-0.5,0.4-0.9,0.9-0.9c0,0,0,0,0,0c0.2,0,0.5,0.1,0.6,0.3
				c0.2,0.2,0.3,0.4,0.3,0.6C16.8,21.9,16.4,22.3,15.9,22.3z"/>
		</g>
		<g>
			<path fill="#37474F" d="M15.9,18.2c0.2,0,0.4,0.2,0.4,0.4c0,0.2-0.2,0.4-0.4,0.4c-0.2,0-0.4-0.2-0.4-0.4
				C15.5,18.4,15.7,18.2,15.9,18.2z"/>
			<path fill="#37474F" d="M15.9,19.5L15.9,19.5C15.9,19.5,15.9,19.5,15.9,19.5c-0.3,0-0.5-0.1-0.7-0.3c-0.2-0.2-0.3-0.4-0.3-0.6
				c0-0.2,0.1-0.5,0.3-0.6c0.2-0.2,0.4-0.3,0.6-0.3c0.5,0,0.9,0.4,0.9,0.9C16.8,19.1,16.4,19.5,15.9,19.5z"/>
		</g>
	</g>
	<g>
		<g>
			<polyline fill="#FFAB00" points="5.2,11.6 8.3,11.8 8.6,10.7 			"/>
			<path fill="#37474F" d="M8.7,12.3l-3.5-0.2c-0.3,0-0.5-0.2-0.5-0.5c0-0.3,0.2-0.5,0.5-0.5l2.7,0.1l0.2-0.7
				c0.1-0.3,0.4-0.4,0.6-0.3c0.3,0.1,0.4,0.4,0.3,0.6L8.7,12.3z"/>
		</g>
		<g>
			<polyline fill="#FFAB00" points="7.4,5.6 9.9,7.5 10.8,6.8 			"/>
			<path fill="#37474F" d="M9.9,8.2L7.1,6C6.8,5.8,6.8,5.5,7,5.3c0.2-0.2,0.5-0.3,0.7-0.1l2.2,1.7l0.6-0.5c0.2-0.2,0.5-0.1,0.7,0.1
				c0.2,0.2,0.1,0.5-0.1,0.7L9.9,8.2z"/>
		</g>
		<g>
			<polyline fill="#FFAB00" points="12.6,1.9 13.5,4.9 14.7,4.8 			"/>
			<path fill="#37474F" d="M13.2,5.4l-1.1-3.4c-0.1-0.3,0.1-0.5,0.3-0.6c0.3-0.1,0.5,0.1,0.6,0.3l0.8,2.6l0.8-0.1
				c0.3,0,0.5,0.2,0.5,0.5c0,0.3-0.2,0.5-0.5,0.5L13.2,5.4z"/>
		</g>
		<g>
			<polyline fill="#FFAB00" points="19,1.9 18.1,4.9 19.1,5.4 			"/>
			<path fill="#37474F" d="M19.1,5.9c-0.1,0-0.2,0-0.3-0.1l-1.3-0.8l1-3.4c0.1-0.3,0.4-0.4,0.6-0.3c0.3,0.1,0.4,0.4,0.3,0.6
				l-0.8,2.6L19.3,5c0.2,0.1,0.3,0.4,0.2,0.7C19.4,5.9,19.2,5.9,19.1,5.9z"/>
		</g>
		<g>
			<polyline fill="#FFAB00" points="24.3,5.4 21.8,7.4 22.3,8.4 			"/>
			<path fill="#37474F" d="M22.3,8.9c-0.2,0-0.4-0.1-0.5-0.3l-0.6-1.4L24,5c0.2-0.2,0.5-0.1,0.7,0.1c0.2,0.2,0.1,0.5-0.1,0.7
				l-2.1,1.7l0.3,0.7c0.1,0.3,0,0.5-0.2,0.7C22.4,8.9,22.4,8.9,22.3,8.9z"/>
		</g>
		<g>
			<polyline fill="#FFAB00" points="26.6,11.4 23.5,11.6 23.3,12.7 			"/>
			<path fill="#37474F" d="M23.3,13.2C23.2,13.2,23.2,13.2,23.3,13.2c-0.4-0.1-0.5-0.3-0.5-0.6l0.3-1.5l3.5-0.3
				c0.3,0,0.5,0.2,0.5,0.5c0,0.3-0.2,0.5-0.5,0.5l-2.8,0.2l-0.1,0.7C23.7,13.1,23.5,13.2,23.3,13.2z"/>
		</g>
	</g>
</g>
</svg>
