<?xml version="1.0" encoding="utf-8"?>
<!-- Generator: Adobe Illustrator 16.0.0, SVG Export Plug-In . SVG Version: 6.00 Build 0)  -->
<!DOCTYPE svg PUBLIC "-//W3C//DTD SVG 1.1//EN" "http://www.w3.org/Graphics/SVG/1.1/DTD/svg11.dtd">
<svg version="1.1" id="Layer_1" xmlns="http://www.w3.org/2000/svg" xmlns:xlink="http://www.w3.org/1999/xlink" x="0px" y="0px"
	 width="32px" height="32px" viewBox="0 0 32 32" enable-background="new 0 0 32 32" xml:space="preserve">
<g>
	<g>
		<g>
			<rect x="0.8" y="3" fill="#FFECB3" width="18.4" height="25.9"/>
			<path fill="#37474F" d="M19.2,29.4H0.8c-0.3,0-0.5-0.2-0.5-0.5V3c0-0.3,0.2-0.5,0.5-0.5h18.4c0.3,0,0.5,0.2,0.5,0.5v25.9
				C19.7,29.2,19.5,29.4,19.2,29.4z M1.3,28.4h17.4V3.5H1.3V28.4z"/>
		</g>
		<g>
			<g>
				<line fill="#FFFFFF" x1="4.9" y1="7.4" x2="15.2" y2="7.4"/>
				<path fill="#37474F" d="M15.2,7.9H4.9c-0.3,0-0.5-0.2-0.5-0.5s0.2-0.5,0.5-0.5h10.3c0.3,0,0.5,0.2,0.5,0.5S15.5,7.9,15.2,7.9z"
					/>
			</g>
			<g>
				<line fill="#FFFFFF" x1="4.9" y1="11.7" x2="15.2" y2="11.7"/>
				<path fill="#37474F" d="M15.2,12.2H4.9c-0.3,0-0.5-0.2-0.5-0.5s0.2-0.5,0.5-0.5h10.3c0.3,0,0.5,0.2,0.5,0.5S15.5,12.2,15.2,12.2
					z"/>
			</g>
			<g>
				<line fill="#FFFFFF" x1="4.9" y1="16" x2="15.2" y2="16"/>
				<path fill="#37474F" d="M15.2,16.5H4.9c-0.3,0-0.5-0.2-0.5-0.5s0.2-0.5,0.5-0.5h10.3c0.3,0,0.5,0.2,0.5,0.5S15.5,16.5,15.2,16.5
					z"/>
			</g>
			<g>
				<line fill="#FFFFFF" x1="4.9" y1="20.3" x2="15.2" y2="20.3"/>
				<path fill="#37474F" d="M15.2,20.8H4.9c-0.3,0-0.5-0.2-0.5-0.5s0.2-0.5,0.5-0.5h10.3c0.3,0,0.5,0.2,0.5,0.5S15.5,20.8,15.2,20.8
					z"/>
			</g>
			<g>
				<line fill="#FFFFFF" x1="4.9" y1="24.5" x2="15.2" y2="24.5"/>
				<path fill="#37474F" d="M15.2,25H4.9c-0.3,0-0.5-0.2-0.5-0.5S4.6,24,4.9,24h10.3c0.3,0,0.5,0.2,0.5,0.5S15.5,25,15.2,25z"/>
			</g>
		</g>
	</g>
	<g>
		<g>
			<g>
				<g>
					<circle fill="#FFFFFF" cx="16.4" cy="14.3" r="8"/>
					<path fill="#37474F" d="M16.4,22.7c-2.3,0-4.4-0.9-6-2.5c-1.6-1.6-2.5-3.7-2.5-6s0.9-4.4,2.5-6c1.6-1.6,3.7-2.5,6-2.5l0,0
						c2.3,0,4.4,0.9,6,2.5c3.3,3.3,3.3,8.7,0,12C20.8,21.9,18.7,22.7,16.4,22.7z M16.4,6.8c-2,0-3.9,0.8-5.3,2.2
						c-1.4,1.4-2.2,3.3-2.2,5.3s0.8,3.9,2.2,5.3c1.4,1.4,3.3,2.2,5.3,2.2s3.9-0.8,5.3-2.2c2.9-2.9,2.9-7.7,0-10.6
						C20.3,7.5,18.4,6.8,16.4,6.8z"/>
				</g>
				<g>
					<line fill="#FFFFFF" x1="24.1" y1="22" x2="22.3" y2="20.1"/>
					<path fill="#37474F" d="M24.1,22.5c-0.1,0-0.3,0-0.4-0.1L22,20.5c-0.2-0.2-0.2-0.5,0-0.7s0.5-0.2,0.7,0l1.8,1.8
						c0.2,0.2,0.2,0.5,0,0.7C24.4,22.4,24.3,22.5,24.1,22.5z"/>
				</g>
			</g>
			<g>
				<path fill="#FFECB3" d="M30.7,26.3c0.6,0.6,0.6,1.6,0,2.2l0,0c-0.6,0.6-1.6,0.6-2.2,0l-4.3-4.3c-0.6-0.6-0.6-1.6,0-2.2l0,0
					c0.6-0.6,1.6-0.6,2.2,0L30.7,26.3z"/>
				<path fill="#37474F" d="M29.6,29.5c-0.6,0-1.1-0.2-1.5-0.6l-4.3-4.3c-0.4-0.4-0.6-0.9-0.6-1.5s0.2-1.1,0.6-1.5
					c0.8-0.8,2.1-0.8,2.9,0l4.3,4.3c0.8,0.8,0.8,2.1,0,2.9C30.7,29.3,30.1,29.5,29.6,29.5z M25.3,22.1c-0.3,0-0.6,0.1-0.8,0.3
					c-0.2,0.2-0.3,0.5-0.3,0.8s0.1,0.5,0.3,0.8l4.3,4.3c0.4,0.4,1.1,0.4,1.5,0c0.4-0.4,0.4-1.1,0-1.5l-4.3-4.3
					C25.9,22.2,25.6,22.1,25.3,22.1z"/>
			</g>
		</g>
		<g>
			<line fill="#FFFFFF" x1="21.8" y1="8.8" x2="21.8" y2="19.7"/>
			<path fill="#37474F" d="M21.8,20.2c-0.3,0-0.5-0.2-0.5-0.5V8.8c0-0.3,0.2-0.5,0.5-0.5s0.5,0.2,0.5,0.5v10.8
				C22.3,19.9,22.1,20.2,21.8,20.2z"/>
		</g>
	</g>
</g>
</svg>
