<?xml version="1.0" encoding="utf-8"?>
<!-- Generator: Adobe Illustrator 16.0.0, SVG Export Plug-In . SVG Version: 6.00 Build 0)  -->
<!DOCTYPE svg PUBLIC "-//W3C//DTD SVG 1.1//EN" "http://www.w3.org/Graphics/SVG/1.1/DTD/svg11.dtd">
<svg version="1.1" id="Layer_1" xmlns="http://www.w3.org/2000/svg" xmlns:xlink="http://www.w3.org/1999/xlink" x="0px" y="0px"
	 width="33px" height="33px" viewBox="0 0 33 33" enable-background="new 0 0 33 33" xml:space="preserve">
<g>
	<g>
		
			<rect x="5.6" y="5.6" transform="matrix(0.707 0.7072 -0.7072 0.707 16.5022 -6.8345)" fill="#FFAB00" width="21.8" height="21.8"/>
		<path fill="#37474F" d="M16.5,32.6L0.4,16.5L16.5,0.4l16.1,16.1L16.5,32.6z M1.8,16.5l14.7,14.7l14.7-14.7L16.5,1.8L1.8,16.5z"/>
	</g>
	<g>
		<g>
			<g>
				<rect x="5" y="19" fill="#FFECB3" width="7" height="4"/>
				<path fill="#37474F" d="M12,23.5H5c-0.3,0-0.5-0.2-0.5-0.5v-4c0-0.3,0.2-0.5,0.5-0.5h7c0.3,0,0.5,0.2,0.5,0.5v4
					C12.5,23.3,12.3,23.5,12,23.5z M5.5,22.5h6v-3h-6V22.5z"/>
			</g>
			<g>
				<rect x="12" y="19" fill="#B0BEC5" width="8" height="4"/>
				<path fill="#37474F" d="M20.5,23.5h-9v-5h9V23.5z M12.5,22.5h7v-3h-7V22.5z"/>
			</g>
			<g>
				<rect x="20" y="19" fill="#FFFFFF" width="8" height="4"/>
				<path fill="#37474F" d="M28,23.5h-8c-0.3,0-0.5-0.2-0.5-0.5v-4c0-0.3,0.2-0.5,0.5-0.5h8c0.3,0,0.5,0.2,0.5,0.5v4
					C28.5,23.3,28.3,23.5,28,23.5z M20.5,22.5h7v-3h-7V22.5z"/>
			</g>
		</g>
		<g>
			<g>
				<rect x="9" y="15" fill="#FFFFFF" width="7" height="4"/>
				<path fill="#37474F" d="M16,19.5H9c-0.3,0-0.5-0.2-0.5-0.5v-4c0-0.3,0.2-0.5,0.5-0.5h7c0.3,0,0.5,0.2,0.5,0.5v4
					C16.5,19.3,16.3,19.5,16,19.5z M9.5,18.5h6v-3h-6V18.5z"/>
			</g>
			<g>
				<rect x="16" y="15" fill="#FFECB3" width="8" height="4"/>
				<path fill="#37474F" d="M24,19.5h-8c-0.3,0-0.5-0.2-0.5-0.5v-4c0-0.3,0.2-0.5,0.5-0.5h8c0.3,0,0.5,0.2,0.5,0.5v4
					C24.5,19.3,24.3,19.5,24,19.5z M16.5,18.5h7v-3h-7V18.5z"/>
			</g>
		</g>
		<g>
			<g>
				<rect x="12" y="11" fill="#B0BEC5" width="8" height="4"/>
				<path fill="#37474F" d="M20.5,15.5h-9v-5h9V15.5z M12.5,14.5h7v-3h-7V14.5z"/>
			</g>
		</g>
	</g>
	<g>
		<g>
			<path fill="#37474F" d="M16.5,9c-0.2,0-0.3,0.1-0.3,0.3c0,0.2,0.1,0.3,0.3,0.3c0.2,0,0.3-0.2,0.3-0.3C16.8,9.2,16.7,9,16.5,9z"/>
			<path fill="#37474F" d="M16.5,10.2c-0.5,0-0.8-0.4-0.8-0.8c0-0.5,0.4-0.8,0.8-0.8c0.5,0,0.8,0.4,0.8,0.8
				C17.3,9.8,17,10.2,16.5,10.2z M16.5,9.2c-0.1,0-0.2,0.1-0.2,0.2c0,0.2,0.3,0.2,0.3,0C16.7,9.3,16.6,9.2,16.5,9.2z"/>
		</g>
		<g>
			<path fill="#37474F" d="M16.5,6.7c-0.2,0-0.3,0.1-0.3,0.3c0,0.2,0.1,0.3,0.3,0.3c0.2,0,0.3-0.1,0.3-0.3
				C16.8,6.8,16.7,6.7,16.5,6.7z"/>
			<path fill="#37474F" d="M16.5,7.9c-0.5,0-0.8-0.4-0.8-0.8s0.4-0.8,0.8-0.8c0.5,0,0.8,0.4,0.8,0.8S17,7.9,16.5,7.9z M16.5,6.9
				c-0.1,0-0.2,0.1-0.2,0.2c0,0.2,0.3,0.2,0.3,0C16.7,6.9,16.6,6.9,16.5,6.9z"/>
		</g>
		<g>
			<path fill="#37474F" d="M16.5,4.4c-0.2,0-0.3,0.1-0.3,0.3c0,0.2,0.1,0.3,0.3,0.3c0.2,0,0.3-0.1,0.3-0.3
				C16.8,4.5,16.7,4.4,16.5,4.4z"/>
			<path fill="#37474F" d="M16.5,5.5c-0.5,0-0.8-0.4-0.8-0.8c0-0.5,0.4-0.8,0.8-0.8c0.5,0,0.8,0.4,0.8,0.8C17.3,5.2,17,5.5,16.5,5.5
				z M16.5,4.5c-0.1,0-0.2,0.1-0.2,0.2c0,0.2,0.3,0.2,0.3,0C16.7,4.6,16.6,4.5,16.5,4.5z"/>
		</g>
	</g>
</g>
</svg>
