<?xml version="1.0" encoding="utf-8"?>
<!-- Generator: Adobe Illustrator 16.0.0, SVG Export Plug-In . SVG Version: 6.00 Build 0)  -->
<!DOCTYPE svg PUBLIC "-//W3C//DTD SVG 1.1//EN" "http://www.w3.org/Graphics/SVG/1.1/DTD/svg11.dtd">
<svg version="1.1" id="Layer_1" xmlns="http://www.w3.org/2000/svg" xmlns:xlink="http://www.w3.org/1999/xlink" x="0px" y="0px"
	 width="32px" height="32px" viewBox="0 0 32 32" enable-background="new 0 0 32 32" xml:space="preserve">
<g>
	<g>
		<g>
			<path fill="#FFECB3" d="M30.5,28c0,1.4-1.1,2.5-2.5,2.5H4c-1.4,0-2.5-1.1-2.5-2.5V4c0-1.4,1.1-2.5,2.5-2.5h24
				c1.4,0,2.5,1.1,2.5,2.5V28z"/>
		</g>
		<g>
			<path fill="#37474F" d="M28,31H4c-1.7,0-3-1.3-3-3V4c0-1.7,1.3-3,3-3h24c1.7,0,3,1.3,3,3v24C31,29.7,29.7,31,28,31z M4,2
				C2.9,2,2,2.9,2,4v24c0,1.1,0.9,2,2,2h24c1.1,0,2-0.9,2-2V4c0-1.1-0.9-2-2-2H4z"/>
		</g>
	</g>
	<g>
		<g>
			<path fill="#FFFFFF" d="M1.5,6.5v21c0,1.4,1.2,3,2.6,3h24c1.4,0,2.4-1.6,2.4-3v-21H1.5z"/>
		</g>
		<g>
			<path fill="#37474F" d="M28.1,31h-24C2.4,31,1,29.1,1,27.5v-21C1,6.2,1.2,6,1.5,6h29C30.8,6,31,6.2,31,6.5v21
				C31,29.2,29.8,31,28.1,31z M2,7v20.5C2,28.6,3,30,4.1,30h24c1.1,0,1.9-1.3,1.9-2.5V7H2z"/>
		</g>
	</g>
	<g>
		<g>
			<g>
				<path fill="#37474F" d="M9.1,3.1l0.3,1c0.1,0.2,0.1,0.4,0.2,0.7h0c0-0.2,0.1-0.4,0.2-0.6l0.3-1h0.3l0.3,1
					c0.1,0.2,0.1,0.5,0.2,0.7h0c0-0.2,0.1-0.4,0.2-0.7l0.3-1h0.4L11,5.1h-0.3l-0.3-1c-0.1-0.2-0.1-0.4-0.2-0.7h0
					c-0.1,0.2-0.1,0.5-0.2,0.7l-0.3,1H9.3L8.7,3.1H9.1z"/>
			</g>
		</g>
		<g>
			<g>
				<path fill="#37474F" d="M12.2,3.1l0.3,1c0.1,0.2,0.1,0.4,0.2,0.7h0c0-0.2,0.1-0.4,0.2-0.6l0.3-1h0.3l0.3,1
					C13.9,4.3,14,4.6,14,4.8h0c0-0.2,0.1-0.4,0.2-0.7l0.3-1h0.4l-0.7,2.1h-0.3l-0.3-1c-0.1-0.2-0.1-0.4-0.2-0.7h0
					c-0.1,0.2-0.1,0.5-0.2,0.7l-0.3,1h-0.3l-0.6-2.1H12.2z"/>
			</g>
		</g>
		<g>
			<g>
				<path fill="#37474F" d="M15.4,3.1l0.3,1c0.1,0.2,0.1,0.4,0.2,0.7h0c0-0.2,0.1-0.4,0.2-0.6l0.3-1h0.3l0.3,1
					c0.1,0.2,0.1,0.5,0.2,0.7h0c0-0.2,0.1-0.4,0.2-0.7l0.3-1H18l-0.7,2.1H17l-0.3-1c-0.1-0.2-0.1-0.4-0.2-0.7h0
					c-0.1,0.2-0.1,0.5-0.2,0.7l-0.3,1h-0.3L15,3.1H15.4z"/>
			</g>
		</g>
		<g>
			<g>
				<path fill="#37474F" d="M18.2,4.9c0-0.2,0.1-0.3,0.3-0.3s0.2,0.1,0.2,0.3c0,0.2-0.1,0.3-0.3,0.3C18.3,5.2,18.2,5.1,18.2,4.9z"/>
			</g>
		</g>
		<g>
			<g>
				<path fill="#37474F" d="M20.6,5c-0.1,0.1-0.3,0.1-0.6,0.1c-0.6,0-1-0.4-1-1C19,3.5,19.4,3,20.1,3c0.2,0,0.4,0.1,0.5,0.1
					l-0.1,0.3c-0.1-0.1-0.2-0.1-0.4-0.1c-0.5,0-0.7,0.3-0.7,0.8c0,0.5,0.3,0.8,0.7,0.8c0.2,0,0.4-0.1,0.5-0.1L20.6,5z"/>
			</g>
		</g>
		<g>
			<g>
				<path fill="#37474F" d="M22.9,4.1c0,0.8-0.5,1.1-1,1.1c-0.6,0-1-0.4-1-1.1c0-0.7,0.5-1.1,1-1.1C22.5,3,22.9,3.5,22.9,4.1z
					 M21.2,4.1c0,0.4,0.3,0.8,0.6,0.8c0.4,0,0.6-0.3,0.6-0.8c0-0.3-0.2-0.8-0.6-0.8S21.2,3.7,21.2,4.1z"/>
			</g>
		</g>
		<g>
			<g>
				<path fill="#37474F" d="M23.3,3.6c0-0.2,0-0.4,0-0.6h0.3l0,0.3h0C23.8,3.2,24,3,24.3,3c0.3,0,0.5,0.2,0.6,0.4h0
					C25,3.3,25,3.2,25.1,3.2C25.3,3.1,25.4,3,25.6,3c0.3,0,0.7,0.2,0.7,0.9v1.2h-0.4V4c0-0.4-0.1-0.6-0.4-0.6
					c-0.2,0-0.4,0.2-0.4,0.3c0,0.1,0,0.1,0,0.2v1.3h-0.4V3.9c0-0.3-0.1-0.6-0.4-0.6c-0.2,0-0.4,0.2-0.5,0.4c0,0.1,0,0.1,0,0.2v1.2
					h-0.4V3.6z"/>
			</g>
		</g>
	</g>
	<g>
		<g>
			<rect x="5.5" y="10.5" fill="#FFAB00" width="7" height="7"/>
		</g>
		<g>
			<path fill="#37474F" d="M12.5,18h-7C5.2,18,5,17.8,5,17.5v-7C5,10.2,5.2,10,5.5,10h7c0.3,0,0.5,0.2,0.5,0.5v7
				C13,17.8,12.8,18,12.5,18z M6,17h6v-6H6V17z"/>
		</g>
	</g>
	<g>
		<g>
			<path fill="#FFECB3" d="M7.2,4.2c0,0.5-0.4,1-1,1s-1-0.4-1-1s0.4-1,1-1"/>
		</g>
		<g>
			<path fill="#37474F" d="M6.2,5.6C5.4,5.6,4.8,5,4.8,4.2c0-0.8,0.7-1.5,1.5-1.5c0.3,0,0.5,0.2,0.5,0.5S6.5,3.7,6.2,3.7
				C6,3.7,5.8,3.9,5.8,4.2S6,4.6,6.2,4.6c0.3,0,0.5-0.2,0.5-0.5c0-0.3,0.2-0.5,0.5-0.5s0.5,0.2,0.5,0.5C7.7,5,7,5.6,6.2,5.6z"/>
		</g>
	</g>
	<g>
		<g>
			<rect x="15.5" y="10.5" fill="#FFECB3" width="11" height="2"/>
		</g>
		<g>
			<path fill="#37474F" d="M26.5,13h-11c-0.3,0-0.5-0.2-0.5-0.5v-2c0-0.3,0.2-0.5,0.5-0.5h11c0.3,0,0.5,0.2,0.5,0.5v2
				C27,12.8,26.8,13,26.5,13z M16,12h10v-1H16V12z"/>
		</g>
	</g>
	<g>
		<g>
			<line fill="#FFECB3" x1="26" y1="14.5" x2="16" y2="14.5"/>
		</g>
		<g>
			<path fill="#37474F" d="M26,15H16c-0.3,0-0.5-0.2-0.5-0.5S15.7,14,16,14h10c0.3,0,0.5,0.2,0.5,0.5S26.3,15,26,15z"/>
		</g>
	</g>
	<g>
		<g>
			<line fill="#FFECB3" x1="26" y1="17.5" x2="16" y2="17.5"/>
		</g>
		<g>
			<path fill="#37474F" d="M26,18H16c-0.3,0-0.5-0.2-0.5-0.5S15.7,17,16,17h10c0.3,0,0.5,0.2,0.5,0.5S26.3,18,26,18z"/>
		</g>
	</g>
	<g>
		<g>
			<g>
				<polyline fill="#FFECB3" points="23.5,26 23.5,23.5 26,23.5 				"/>
			</g>
			<g>
				<path fill="#37474F" d="M23.5,26.5c-0.3,0-0.5-0.2-0.5-0.5v-2.5c0-0.3,0.2-0.5,0.5-0.5H26c0.3,0,0.5,0.2,0.5,0.5S26.3,24,26,24
					h-2v2C24,26.3,23.8,26.5,23.5,26.5z"/>
			</g>
		</g>
		<g>
			<g>
				<line fill="#FFECB3" x1="27.4" y1="27.1" x2="23.8" y2="23.7"/>
			</g>
			<g>
				<path fill="#37474F" d="M27.4,27.6c-0.1,0-0.2,0-0.3-0.1l-3.7-3.4c-0.2-0.2-0.2-0.5,0-0.7c0.2-0.2,0.5-0.2,0.7,0l3.7,3.4
					c0.2,0.2,0.2,0.5,0,0.7C27.7,27.5,27.6,27.6,27.4,27.6z"/>
			</g>
		</g>
	</g>
	<g>
		<g>
			<line fill="#FFECB3" x1="5" y1="21.5" x2="21" y2="21.5"/>
		</g>
		<g>
			<path fill="#37474F" d="M21,22H5c-0.3,0-0.5-0.2-0.5-0.5S4.7,21,5,21h16c0.3,0,0.5,0.2,0.5,0.5S21.3,22,21,22z"/>
		</g>
	</g>
	<g>
		<g>
			<line fill="#FFECB3" x1="5" y1="24.5" x2="21" y2="24.5"/>
		</g>
		<g>
			<path fill="#37474F" d="M21,25H5c-0.3,0-0.5-0.2-0.5-0.5S4.7,24,5,24h16c0.3,0,0.5,0.2,0.5,0.5S21.3,25,21,25z"/>
		</g>
	</g>
	<g>
		<g>
			<line fill="#FFECB3" x1="5" y1="27.5" x2="21" y2="27.5"/>
		</g>
		<g>
			<path fill="#37474F" d="M21,28H5c-0.3,0-0.5-0.2-0.5-0.5S4.7,27,5,27h16c0.3,0,0.5,0.2,0.5,0.5S21.3,28,21,28z"/>
		</g>
	</g>
</g>
</svg>
